#!OML:ASF H:\Terrain\Walking\May29\JustinRory\Justin.ASF
:FULLY-SPECIFIED
:DEGREES
179
root 8.4263 16.0914 13.3564 -215.417 -83.5945 222.332
lowerback 20.9625 -1.48513 1.10819
upperback 5.34951 -1.87533 3.75198
thorax -5.7864 -1.10594 3.91052
lowerneck 3.18023 -20.4974 -16.5423
upperneck -3.66166 -28.556 24.9198
head 4.50907 -14.5059 7.80234
rclavicle 8.05078e-015 2.36554e-014
rhumerus -22.5446 -46.8995 -4.75241
rradius 30.0338
rwrist -40.6453
rhand -7.80893 -1.43526
rfingers 7.12502
rthumb 18.0927 -30.6138
lclavicle 8.05078e-015 2.36554e-014
lhumerus -39.4931 21.729 37.8834
lradius 34.8873
lwrist -0.636758
lhand -9.63944 36.8453
lfingers 7.12502
lthumb 16.3308 66.1777
rfemur -20.1746 -9.74688 4.8038
rtibia 47.2705
rfoot -22.4154 -8.41307
rtoes -34.8301
lfemur -46.2062 17.3233 -8.31294
ltibia 69.6422
lfoot -18.869 -11.4252
ltoes -20.7241
180
root 8.42016 16.0848 13.4011 -214.009 -83.1629 220.924
lowerback 21.012 -1.2396 1.11939
upperback 5.46898 -1.56609 3.78096
thorax -5.69966 -0.962584 3.85591
lowerneck 3.03838 -20.5749 -16.2574
upperneck -3.57408 -28.6479 24.8788
head 4.52721 -14.5407 7.72525
rclavicle 3.84648e-014 -3.73715e-014
rhumerus -22.4177 -46.1846 -4.87206
rradius 30.653
rwrist -43.3658
rhand -6.71913 -2.65818
rfingers 7.12502
rthumb 19.1409 -31.7363
lclavicle 3.84648e-014 -3.73715e-014
lhumerus -39.699 21.4491 38.5853
lradius 35.3114
lwrist -0.951806
lhand -9.57798 36.0958
lfingers 7.12502
lthumb 16.39 65.4233
rfemur -20.3143 -9.67715 4.78833
rtibia 47.2015
rfoot -22.2729 -8.66735
rtoes -36.3073
lfemur -46.2758 17.2483 -8.01586
ltibia 70.1789
lfoot -19.0735 -11.9667
ltoes -20.6042
181
root 8.41488 16.0803 13.4558 -213.169 -82.8323 220.097
lowerback 21.1449 -1.13738 1.17198
upperback 5.55469 -1.42879 3.8444
thorax -5.6828 -0.902338 3.86332
lowerneck 2.62352 -20.7292 -15.9818
upperneck -3.24444 -28.8178 24.4672
head 4.61059 -14.5783 7.49229
rclavicle -1.3418e-014 -3.18055e-015
rhumerus -22.0109 -47.18 -4.59129
rradius 30.1366
rwrist -42.0173
rhand -6.61667 -2.91769
rfingers 7.12502
rthumb 19.2395 -31.986
lclavicle -1.3418e-014 -3.18055e-015
lhumerus -40.118 21.3023 39.2461
lradius 35.7842
lwrist -0.971172
lhand -9.79762 35.3043
lfingers 7.12502
lthumb 16.1785 64.6491
rfemur -20.4506 -9.79567 4.71163
rtibia 47.1832
rfoot -22.1587 -8.20058
rtoes -35.6112
lfemur -46.4075 17.1314 -7.87807
ltibia 70.7218
lfoot -19.5275 -12.0354
ltoes -20.3713
182
root 8.41664 16.0646 13.5114 -210.87 -82.7 217.872
lowerback 21.3978 -1.10991 1.00273
upperback 5.4814 -1.41729 3.806
thorax -5.89177 -0.891505 3.92882
lowerneck 2.69621 -20.6898 -16.1505
upperneck -3.26495 -28.7866 24.596
head 4.63449 -14.5683 7.55785
rclavicle 2.88238e-014 -3.4191e-014
rhumerus -21.18 -47.5127 -4.81198
rradius 29.7197
rwrist -42.0295
rhand -6.07529 -3.31061
rfingers 7.12502
rthumb 19.76 -32.3262
lclavicle 2.88238e-014 -3.4191e-014
lhumerus -40.7644 21.3726 39.4939
lradius 36.1285
lwrist -1.15834
lhand -9.843 34.9318
lfingers 7.12502
lthumb 16.1348 64.2801
rfemur -20.7175 -9.98584 4.32662
rtibia 47.228
rfoot -22.0254 -7.63213
rtoes -34.8398
lfemur -46.7053 17.0603 -8.13986
ltibia 71.3173
lfoot -19.9854 -11.7625
ltoes -19.4966
183
root 8.41991 16.0452 13.5646 -209.75 -82.4532 216.841
lowerback 21.6564 -1.09925 0.952762
upperback 5.37762 -1.40025 3.76835
thorax -6.13995 -0.877535 3.9265
lowerneck 3.09793 -20.5226 -16.4855
upperneck -3.51379 -28.6355 25.1801
head 4.62049 -14.5379 7.83479
rclavicle 5.96354e-016 4.23411e-014
rhumerus -20.7114 -47.2141 -5.03571
rradius 29.683
rwrist -42.328
rhand -5.80023 -3.69272
rfingers 7.12502
rthumb 20.0244 -32.6809
lclavicle 5.96354e-016 4.23411e-014
lhumerus -41.4707 21.6608 39.4859
lradius 36.3207
lwrist -1.49107
lhand -9.96926 34.6835
lfingers 7.12502
lthumb 16.0132 64.0417
rfemur -21.0061 -10.1955 4.13598
rtibia 47.3304
rfoot -21.9564 -6.92041
rtoes -34.2895
lfemur -47.1066 17.0782 -8.21014
ltibia 72.0442
lfoot -20.3022 -11.5472
ltoes -17.9102
184
root 8.41991 16.0243 13.625 -210.934 -81.7866 218.062
lowerback 21.8174 -1.00974 1.32748
upperback 5.46117 -1.20859 3.89279
thorax -6.14732 -0.796597 3.8015
lowerneck 3.06081 -20.5791 -16.652
upperneck -3.46083 -28.7537 25.4346
head 4.73569 -14.5922 7.88697
rclavicle 2.28602e-015 5.96354e-016
rhumerus -20.5044 -47.1845 -4.9388
rradius 29.6826
rwrist -42.3996
rhand -5.58107 -4.1641
rfingers 7.12502
rthumb 20.235 -33.1301
lclavicle 2.28602e-015 5.96354e-016
lhumerus -41.9179 22.0785 39.785
lradius 36.4725
lwrist -1.40635
lhand -10.1966 34.1674
lfingers 7.12502
lthumb 15.7943 63.5431
rfemur -21.2372 -10.4977 4.46621
rtibia 47.4529
rfoot -21.7676 -5.83979
rtoes -33.6812
lfemur -47.4718 17.4238 -7.77354
ltibia 72.9017
lfoot -20.6874 -11.2386
ltoes -16.3932
185
root 8.41535 15.9942 13.6902 -210.753 -81.2263 217.869
lowerback 21.9289 -0.889383 1.58183
upperback 5.61051 -1.01538 3.92124
thorax -6.05567 -0.715139 3.6357
lowerneck 2.64726 -20.7312 -16.2797
upperneck -3.26159 -28.8896 25.0123
head 4.75712 -14.621 7.65246
rclavicle -6.85807e-015 3.8763e-014
rhumerus -20.0813 -47.1593 -5.0557
rradius 29.6745
rwrist -43.4191
rhand -6.14792 -5.4093
rfingers 7.12502
rthumb 19.6902 -34.4321
lclavicle -6.85807e-015 3.8763e-014
lhumerus -42.0904 22.3347 40.1764
lradius 36.5339
lwrist -1.18617
lhand -9.81938 33.5424
lfingers 7.12502
lthumb 16.1576 62.8889
rfemur -21.4458 -10.9744 4.48762
rtibia 47.553
rfoot -21.4311 -4.73512
rtoes -33.6781
lfemur -47.7388 17.8161 -7.61702
ltibia 73.7612
lfoot -21.2414 -10.5662
ltoes -15.876
